<?xml version="1.0" encoding="iso-8859-1"?>
<!-- Generator: Adobe Illustrator 19.0.0, SVG Export Plug-In . SVG Version: 6.00 Build 0)  -->
<svg version="1.1" xmlns="http://www.w3.org/2000/svg" xmlns:xlink="http://www.w3.org/1999/xlink" x="0px" y="0px"
	 viewBox="0 0 1080 1080" style="enable-background:new 0 0 1080 1080;" xml:space="preserve">
<g id="Layer_2" style="display:none;">
	<rect id="XMLID_1_" x="-22.993" y="-24.701" style="display:inline;fill:#037BFB;" width="1127.944" height="1133.943"/>
</g>
<g id="Layer_1">
	<g id="XMLID_4_">
		<g id="XMLID_19_">
			<g id="XMLID_31_">
				<g id="XMLID_32_">
					<path id="XMLID_34_" style="fill:#FFFFFF;" d="M664.931,276.816l-0.019,0.643c-0.227,3.615-1.95,6.871-4.751,9.047l-4.41,3.577
						c-2.12,1.741-4.864,2.726-7.704,2.726c-3.066,0-6.019-1.136-8.347-3.18c-6.17-5.735-12.738-10.883-19.628-15.388
						c-5.224-3.615-7.06-10.126-4.524-15.558l2.82-6.019c1.476-2.763,3.956-4.864,6.965-5.868l1.306-0.36
						c2.953-0.663,6.057-0.17,8.688,1.344l0.643,0.36c8.877,5.792,17.319,12.397,25.06,19.647l0.132,0.133
						C663.587,270.343,664.931,273.504,664.931,276.816z"/>
				</g>
			</g>
			<g id="XMLID_28_">
				<g id="XMLID_29_">
					<path id="XMLID_30_" style="fill:#FFFFFF;" d="M705.416,344.538l-0.151,0.303c-1.741,3.199-4.77,5.451-8.309,6.17l-5.47,1.268
						c-0.927,0.246-1.874,0.36-2.858,0.36c-5.016,0-9.634-3.199-11.489-7.969c-2.99-7.647-6.643-15.142-10.883-22.259
						c-3.18-5.375-2.025-12.057,2.726-15.937l4.618-3.729c2.12-1.779,4.902-2.782,7.779-2.782l1.438,0.076l0.965,0.151
						c3.388,0.663,6.265,2.65,8.101,5.622c5.508,9.123,10.221,18.776,14.044,28.751l0.189,0.473
						C707.158,338.198,706.912,341.567,705.416,344.538z"/>
				</g>
			</g>
			<g id="XMLID_20_">
				<g id="XMLID_26_">
					<path id="XMLID_27_" style="fill:#FFFFFF;" d="M717.644,398.349c0,3.994-0.151,8.29-0.454,12.738l-0.038,0.606
						c-0.379,3.161-1.931,6.019-4.353,8.044l-0.398,0.341c-2.196,1.666-4.77,2.536-7.476,2.536c-0.776,0-1.495-0.057-2.196-0.189
						l-0.492-0.114l-5.754-1.23c-5.792-1.117-9.918-6.398-9.71-12.53l0.038-0.511c0.208-3.047,0.322-6.36,0.322-9.691
						c0-4.145-0.17-8.328-0.511-12.397c-0.492-6.114,3.407-11.603,9.275-13.079l5.849-1.325c0.871-0.246,1.893-0.379,2.934-0.379
						c2.461,0,4.864,0.738,6.909,2.139c3.161,2.177,5.11,5.584,5.357,9.35C717.417,387.712,717.644,393.031,717.644,398.349z"/>
				</g>
			</g>
		</g>
		<g id="XMLID_10_">
			<g id="XMLID_14_">
				<path id="XMLID_15_" style="fill:#FC8403;" d="M599.252,243.768l-0.189,0.473l-2.593,5.527
					c-2.574,5.527-8.972,8.347-14.858,6.53c-9.653-2.915-19.647-4.845-29.678-5.697l-2.101-0.189
					c-3.634-0.265-7.382-0.398-11.035-0.398c-3.483,0-7.211,0.133-11.432,0.416l-1.609,0.17c-13.741,1.174-27.104,4.24-39.786,9.123
					l-0.265,0.095c-0.53,0.189-0.946,0.341-1.287,0.492l-0.189,0.076c-7.155,2.858-13.987,6.17-20.29,9.899l-0.17,0.095
					c-0.341,0.189-0.587,0.322-0.814,0.454l-0.814,0.492c-11.64,7.041-22.297,15.672-31.628,25.647
					c-0.492,0.511-0.871,0.909-1.287,1.382c-5.091,5.584-9.748,11.527-13.855,17.716l-1.192,1.779
					c-7.42,11.489-13.23,23.924-17.186,36.909l-0.587,1.912c-2.082,7.079-3.653,14.517-4.675,22.05l-0.189,1.704
					c-0.719,6.057-1.079,12.095-1.079,17.924c0,6.757,0.473,13.59,1.382,20.29c0.095,0.719,0.189,1.325,0.284,1.968
					c1.117,7.42,2.82,14.801,5.054,22.013c0.151,0.473,0.341,1.022,0.53,1.552c4.278,13.23,10.297,25.571,17.905,36.814
					c0.416,0.662,0.681,1.079,0.946,1.42l0.133,0.189c4.24,6.151,9.009,12.038,14.158,17.508c0.473,0.511,0.89,0.927,1.249,1.306
					c9.634,9.956,20.498,18.454,32.309,25.287c0.53,0.322,0.984,0.587,1.42,0.795l1.23,0.738c3.88,2.158,6.284,6.246,6.284,10.694
					v6.719c0,4.297-2.177,8.196-5.811,10.448c-2.063,1.249-4.296,1.874-6.53,1.874c-1.987,0-4.013-0.511-5.811-1.495
					c-0.7-0.36-1.514-0.795-2.423-1.306c-0.492-0.246-1.117-0.587-1.874-1.041c-15.615-8.782-29.811-19.912-42.171-33.047
					c-0.303-0.303-0.795-0.814-1.249-1.344l-0.17-0.189c-5.224-5.603-10.107-11.622-14.555-17.924l-0.322-0.435
					c-0.17-0.246-0.416-0.587-0.662-0.946l-0.265-0.416c-10.202-14.745-18.095-30.928-23.47-48.076l-0.133-0.454
					c-0.17-0.53-0.341-1.041-0.473-1.59l-0.038-0.095c-2.177-7.211-3.918-14.801-5.129-22.41l-0.303-1.798
					c-1.344-8.934-2.025-18-2.025-27.047c0-7.912,0.53-15.918,1.59-23.83c0.038-0.227,0.076-0.549,0.114-0.909l0.095-0.7
					c1.173-8.063,2.801-15.767,4.864-23.091l0.095-0.265c0.114-0.454,0.246-0.927,0.416-1.495l0.095-0.284
					c4.997-17.129,12.625-33.426,22.637-48.473l1.136-1.647c4.202-6.227,9.047-12.416,14.347-18.36l0.114-0.114
					c0.416-0.511,0.89-1.022,1.363-1.514c11.981-13.155,26.063-24.549,41.716-33.767l1.476-0.833
					c6.662-3.823,13.685-7.268,20.839-10.202l0.265-0.114c0.416-0.17,0.776-0.322,1.173-0.473l0.379-0.151
					c16.883-6.719,34.467-10.789,52.429-12.132l2.12-0.133c7.779-0.511,15.407-0.511,23.3,0.019l1.741,0.114
					c13.495,1.022,26.65,3.483,39.161,7.344l0.057,0.019c3.577,1.136,6.435,3.767,7.798,7.192
					C600.445,237.314,600.482,240.74,599.252,243.768z"/>
			</g>
			<g id="XMLID_12_">
				<path id="XMLID_13_" style="fill:#FC8403;" d="M707.006,459.182c-4.808,13.401-11.319,26.29-19.325,38.29l-1.022,1.514
					c-4.467,6.53-9.312,12.719-14.461,18.473l-1.287,1.401c-12.133,13.325-26.158,24.7-41.697,33.842l-1.647,0.946
					c-2.158,1.23-4.183,2.328-6.17,3.369c-1.798,0.984-3.804,1.495-5.849,1.495c-2.233,0-4.448-0.625-6.379-1.798
					c-3.786-2.328-5.943-6.17-5.943-10.524v-6.7c0-4.561,2.517-8.726,6.549-10.864c1.173-0.643,2.517-1.382,3.823-2.177l0.492-0.265
					c0.189-0.133,0.417-0.246,0.625-0.379l0.53-0.322c11.773-7.098,22.467-15.748,31.836-25.741l1.438-1.552
					c4.978-5.489,9.615-11.432,13.722-17.584l1.174-1.722c5.887-9.142,10.827-19.041,14.593-29.281
					c2.233-5.83,8.139-9.123,14.101-7.912l5.886,1.268c3.218,0.625,6.17,2.688,7.969,5.659l0.492,0.871
					C707.972,452.558,708.161,456.003,707.006,459.182z"/>
			</g>
		</g>
		<path id="XMLID_9_" style="fill:#FFFFFF;" d="M649.221,394.166c0,11.224-6.89,20.631-16.145,23.073
			c-0.984,0.151-1.969,0.322-2.934,0.511c-17.811,3.502-33.502,12.095-47.054,25.76c-18.246,18.379-27.35,40.505-27.35,66.36
			v140.669l-46.732,23.375V509.87c0-38.801,13.666-71.943,40.997-99.426c20.631-20.726,44.499-33.634,71.641-38.726
			c2.536-0.473,5.073-0.89,7.666-1.211C640.4,371.075,649.221,381.466,649.221,394.166z"/>
		<path id="XMLID_7_" style="fill:#FFFFFF;" d="M875.56,382.602c0,49.257-12.371,95.804-34.437,137.129
			c-20.303,38.126-48.8,71.812-83.4,99.101c-3.917,2.611-7.606,5.386-11.066,8.324c-0.033,0.065-0.098,0.13-0.163,0.163
			c-17.855,15.374-29.476,35.253-31.761,57.189c-0.294,2.644-0.424,5.288-0.424,7.997c0,2.709,0.131,5.353,0.424,7.997v49.485
			c-2.448,18.704-18.41,33.132-37.701,33.132c-8.356,0-16.027-2.709-22.295-7.279c-7.965-5.778-13.579-14.558-15.211-24.71v-47.135
			c0-8.65,0.62-17.17,1.861-25.493c0.588-4.276,1.371-8.52,2.285-12.73c7.867-35.58,26.505-67.406,52.488-92.181
			c9.303-6.463,18.149-13.514,26.407-21.054c47.429-43.316,76.839-103.443,76.839-169.934
			c0-131.906-115.716-238.842-258.427-238.842S282.552,250.696,282.552,382.602c0,72.139,34.6,136.803,89.309,180.608
			c32.903,26.571,56.34,63.456,64.892,105.401c0.62,3.036,1.175,6.104,1.599,9.205c0.979,6.496,1.599,13.122,1.828,19.846v50.824
			c-0.849,11.36-6.659,21.315-15.276,27.713c-6.3,4.733-14.101,7.508-22.588,7.508c-18.606,0-34.078-13.448-37.342-31.141v-61.954
			c0-24.71-11.784-47.331-31.173-64.501c-3.852-3.427-7.997-6.626-12.437-9.564c-33.327-26.864-60.845-59.768-80.56-96.881
			c-22.033-41.325-34.405-87.84-34.405-137.064c0-171.273,149.794-310.099,334.581-310.099S875.56,211.33,875.56,382.602z"/>
		<path id="XMLID_6_" style="fill:#FFFFFF;" d="M713.525,869.229c0,22.099-16.68,39.986-37.277,39.986H404.144
			c-20.564,0-37.245-17.888-37.245-39.986c0-22.066,16.68-39.986,37.245-39.986h272.104
			C696.845,829.243,713.525,847.164,713.525,869.229z"/>
		<path id="XMLID_5_" style="fill:#FC8403;" d="M648.143,973.553c0,21.25-17.104,38.485-38.191,38.485H466.327
			c-0.751,0-1.502-0.032-2.22-0.065c-0.522-0.033-1.045-0.065-1.567-0.131c-0.653-0.065-1.273-0.13-1.86-0.228
			c-0.62-0.098-1.208-0.196-1.828-0.327c-4.244-0.816-8.226-2.383-11.817-4.505c-0.49-0.294-1.012-0.62-1.501-0.947
			c-2.513-1.632-4.798-3.558-6.822-5.712c-0.359-0.359-0.718-0.718-1.012-1.11c-3.297-3.721-5.843-8.063-7.475-12.828
			c-0.359-1.045-0.686-2.154-0.947-3.232c-0.457-1.795-0.784-3.623-0.979-5.516c-0.065-0.62-0.098-1.273-0.13-1.893
			c-0.033-0.653-0.065-1.338-0.065-1.991c0-0.751,0.033-1.534,0.098-2.285c0.033-0.555,0.065-1.142,0.13-1.697
			c0.098-1.077,0.261-2.154,0.457-3.199c0.098-0.457,0.196-0.914,0.294-1.371c0.131-0.588,0.261-1.175,0.424-1.73
			c0.131-0.522,0.294-1.045,0.457-1.534c0.033-0.065,0.033-0.163,0.065-0.229c0.229-0.718,0.49-1.436,0.751-2.154
			c0.294-0.653,0.588-1.338,0.881-1.991c0.424-0.979,0.914-1.893,1.404-2.807c0.294-0.457,0.555-0.881,0.816-1.306
			c0.522-0.881,1.077-1.73,1.73-2.579c0.294-0.424,0.588-0.816,0.914-1.208c0.947-1.208,1.991-2.35,3.101-3.46
			c0.359-0.359,0.751-0.685,1.11-1.045c0.327-0.294,0.653-0.588,0.979-0.849c0.294-0.261,0.588-0.522,0.914-0.751
			c0.424-0.326,0.849-0.653,1.273-0.979c0.424-0.294,0.849-0.62,1.306-0.914c0.555-0.392,1.143-0.751,1.73-1.077
			c0.424-0.261,0.881-0.522,1.338-0.751c0.914-0.49,1.828-0.947,2.775-1.371c0.914-0.392,1.795-0.751,2.742-1.077
			c0.751-0.261,1.502-0.49,2.285-0.718c0.065-0.033,0.131-0.033,0.196-0.033c0.718-0.229,1.469-0.392,2.22-0.555
			c0.522-0.098,1.077-0.196,1.632-0.294h156.029C634.303,938.561,648.143,954.425,648.143,973.553z"/>
	</g>
	<g id="XMLID_21_">
		<g id="XMLID_38_">
			<path id="XMLID_42_" style="fill:#FC8403;" d="M4548.43,451.901v0.05c0,4-3.24,7.35-7.57,8.16l-3.29,0.12
				c-3.8-0.42-6.9-2.77-7.98-5.87c-0.11-0.94-0.25-1.87-0.4-2.79c-4.93-30.07-28.85-54.05-59.12-59.5
				c-1.02-0.18-2.05-0.34-3.09-0.49c-3.74-1.08-6.58-3.85-7.31-7.27l0.13-4.05c1.18-4.16,5.51-7.24,10.67-7.24
				c0.38,0,0.75,0.02,1.12,0.05c0.03,0,0.05,0,0.07,0.01c0.57,0.08,1.14,0.18,1.71,0.28c38.71,6.94,69.18,37.99,74.82,76.74
				C4548.28,450.691,4548.36,451.291,4548.43,451.901z"/>
			<path id="XMLID_39_" style="fill:#FC8403;" d="M4581.4,452.481c-0.35,4.29-4.47,7.68-9.51,7.68h-0.04l-1.12-0.06
				c-4.37-0.46-7.83-3.49-8.32-7.3c0-0.51-0.01-1.01-0.03-1.51c-1.6-49.06-40.68-88.9-92.03-95.24c-0.85-0.12-1.7-0.21-2.56-0.3
				h-0.01c-4.11-0.92-7.29-3.83-8.09-7.47l0.12-4.16c1.14-3.97,5.14-6.97,10-7.25c1.5,0.15,2.99,0.33,4.47,0.54
				c27.12,3.71,52.12,15.67,71.53,34.44c22.12,21.38,34.67,49.36,35.56,79.12C4581.391,451.471,4581.411,451.971,4581.4,452.481z"/>
		</g>
		
			<text id="XMLID_36_" transform="matrix(1 0 0 1 3769.0364 544.1002)" style="fill:#FC8403; font-family:'YaroCut'; font-size:221.0811px;">e</text>
		
			<text id="XMLID_33_" transform="matrix(1 0 0 1 3914.665 544.1002)" style="fill:#FFFFFF; font-family:'YaroCut'; font-size:221.0811px;">Vasta</text>
		<g id="XMLID_22_">
			
				<text id="XMLID_43_" transform="matrix(1 0 0 1 3631.6292 544.6088)" style="fill:#FC8403; font-family:'YaroCut'; font-size:221.0811px;">R</text>
		</g>
	</g>
</g>
</svg>
