<?xml version="1.0" encoding="iso-8859-1"?>
<!-- Generator: Adobe Illustrator 19.0.0, SVG Export Plug-In . SVG Version: 6.00 Build 0)  -->
<svg version="1.1" id="Layer_1" xmlns="http://www.w3.org/2000/svg" xmlns:xlink="http://www.w3.org/1999/xlink" x="0px" y="0px"
	 viewBox="-199 0 3920 1080" style="enable-background:new -199 0 3920 1080;" xml:space="preserve">
<g id="Layer_2" style="display:none;">
	<rect id="XMLID_1_" x="-199" y="0.622" style="display:inline;fill:#037BFB;" width="3920" height="1080"/>
</g>
<g id="Layer_1_1_">
	<g id="XMLID_4_">
		<g id="XMLID_19_">
			<g id="XMLID_31_">
				<g id="XMLID_32_">
					<path id="XMLID_34_" style="fill:#FFFFFF;" d="M381.927,282.843l-0.019,0.643c-0.227,3.615-1.95,6.871-4.751,9.047l-4.41,3.577
						c-2.12,1.741-4.864,2.726-7.704,2.726c-3.066,0-6.019-1.136-8.347-3.18c-6.17-5.735-12.738-10.883-19.628-15.388
						c-5.224-3.615-7.06-10.126-4.524-15.558l2.82-6.019c1.476-2.763,3.956-4.864,6.965-5.868l1.306-0.36
						c2.953-0.663,6.057-0.17,8.688,1.344l0.643,0.36c8.877,5.792,17.319,12.397,25.06,19.647l0.132,0.133
						C380.583,276.37,381.927,279.531,381.927,282.843z"/>
				</g>
			</g>
			<g id="XMLID_28_">
				<g id="XMLID_29_">
					<path id="XMLID_30_" style="fill:#FFFFFF;" d="M422.413,350.566l-0.151,0.303c-1.741,3.199-4.77,5.451-8.309,6.17l-5.47,1.268
						c-0.927,0.246-1.874,0.36-2.858,0.36c-5.016,0-9.634-3.199-11.489-7.969c-2.99-7.647-6.643-15.142-10.883-22.259
						c-3.18-5.375-2.025-12.057,2.726-15.937l4.618-3.729c2.12-1.779,4.902-2.782,7.779-2.782l1.438,0.076l0.965,0.151
						c3.388,0.663,6.265,2.65,8.101,5.622c5.508,9.123,10.221,18.776,14.044,28.751l0.189,0.473
						C424.154,344.225,423.908,347.594,422.413,350.566z"/>
				</g>
			</g>
			<g id="XMLID_20_">
				<g id="XMLID_26_">
					<path id="XMLID_27_" style="fill:#FFFFFF;" d="M434.64,404.377c0,3.994-0.151,8.29-0.454,12.738l-0.038,0.606
						c-0.379,3.161-1.931,6.019-4.353,8.044l-0.398,0.341c-2.196,1.666-4.77,2.536-7.476,2.536c-0.776,0-1.495-0.057-2.196-0.189
						l-0.492-0.114l-5.754-1.23c-5.792-1.117-9.918-6.398-9.71-12.53l0.038-0.511c0.208-3.047,0.322-6.36,0.322-9.691
						c0-4.145-0.17-8.328-0.511-12.397c-0.492-6.114,3.407-11.603,9.275-13.079l5.849-1.325c0.871-0.246,1.893-0.379,2.934-0.379
						c2.461,0,4.864,0.738,6.909,2.139c3.161,2.177,5.11,5.584,5.357,9.35C434.413,393.74,434.64,399.058,434.64,404.377z"/>
				</g>
			</g>
		</g>
		<g id="XMLID_10_">
			<g id="XMLID_14_">
				<path id="XMLID_15_" style="fill:#FC8403;" d="M316.248,249.796l-0.189,0.473l-2.593,5.527
					c-2.574,5.527-8.972,8.347-14.858,6.53c-9.653-2.915-19.647-4.845-29.678-5.697l-2.101-0.189
					c-3.634-0.265-7.382-0.398-11.035-0.398c-3.483,0-7.211,0.133-11.432,0.416l-1.609,0.17c-13.741,1.174-27.104,4.24-39.786,9.123
					l-0.265,0.095c-0.53,0.189-0.946,0.341-1.287,0.492l-0.189,0.076c-7.155,2.858-13.987,6.17-20.29,9.899l-0.17,0.095
					c-0.341,0.189-0.587,0.322-0.814,0.454l-0.814,0.492c-11.64,7.041-22.297,15.672-31.628,25.647
					c-0.492,0.511-0.871,0.909-1.287,1.382c-5.091,5.584-9.748,11.527-13.855,17.716l-1.192,1.779
					c-7.42,11.489-13.23,23.924-17.186,36.909l-0.587,1.912c-2.082,7.079-3.653,14.517-4.675,22.05l-0.189,1.704
					c-0.719,6.057-1.079,12.095-1.079,17.924c0,6.757,0.473,13.59,1.382,20.29c0.095,0.719,0.189,1.325,0.284,1.968
					c1.117,7.42,2.82,14.801,5.054,22.013c0.151,0.473,0.341,1.022,0.53,1.552c4.278,13.23,10.297,25.571,17.905,36.814
					c0.416,0.662,0.681,1.079,0.946,1.42l0.133,0.189c4.24,6.151,9.009,12.038,14.158,17.508c0.473,0.511,0.89,0.927,1.249,1.306
					c9.634,9.956,20.498,18.454,32.309,25.287c0.53,0.322,0.984,0.587,1.42,0.795l1.23,0.738c3.88,2.158,6.284,6.246,6.284,10.694
					v6.719c0,4.297-2.177,8.196-5.811,10.448c-2.063,1.249-4.296,1.874-6.53,1.874c-1.987,0-4.013-0.511-5.811-1.495
					c-0.7-0.36-1.514-0.795-2.423-1.306c-0.492-0.246-1.117-0.587-1.874-1.041c-15.615-8.782-29.811-19.912-42.171-33.047
					c-0.303-0.303-0.795-0.814-1.249-1.344l-0.17-0.189c-5.224-5.603-10.107-11.622-14.555-17.924l-0.322-0.435
					c-0.17-0.246-0.416-0.587-0.662-0.946l-0.265-0.416c-10.202-14.745-18.095-30.928-23.47-48.076l-0.133-0.454
					c-0.17-0.53-0.341-1.041-0.473-1.59l-0.038-0.095c-2.177-7.211-3.918-14.801-5.129-22.41l-0.303-1.798
					c-1.344-8.934-2.025-18-2.025-27.047c0-7.912,0.53-15.918,1.59-23.83c0.038-0.227,0.076-0.549,0.114-0.909l0.095-0.7
					c1.173-8.063,2.801-15.767,4.864-23.091l0.095-0.265c0.114-0.454,0.246-0.927,0.416-1.495l0.095-0.284
					c4.997-17.129,12.625-33.426,22.637-48.473l1.136-1.647c4.202-6.227,9.047-12.416,14.347-18.36l0.114-0.114
					c0.416-0.511,0.89-1.022,1.363-1.514c11.981-13.155,26.063-24.549,41.716-33.767l1.476-0.833
					c6.662-3.823,13.685-7.268,20.839-10.202l0.265-0.114c0.416-0.17,0.776-0.322,1.173-0.473l0.379-0.151
					c16.883-6.719,34.467-10.789,52.429-12.132l2.12-0.133c7.779-0.511,15.407-0.511,23.3,0.019l1.741,0.114
					c13.495,1.022,26.65,3.483,39.161,7.344l0.057,0.019c3.577,1.136,6.435,3.767,7.798,7.192
					C317.441,243.342,317.478,246.768,316.248,249.796z"/>
			</g>
			<g id="XMLID_12_">
				<path id="XMLID_13_" style="fill:#FC8403;" d="M424.003,465.21c-4.808,13.401-11.319,26.29-19.325,38.29l-1.022,1.514
					c-4.467,6.53-9.312,12.719-14.461,18.473l-1.287,1.401c-12.133,13.325-26.158,24.7-41.697,33.842l-1.647,0.946
					c-2.158,1.23-4.183,2.328-6.17,3.369c-1.798,0.984-3.804,1.495-5.849,1.495c-2.233,0-4.448-0.625-6.379-1.798
					c-3.786-2.328-5.943-6.17-5.943-10.524v-6.7c0-4.561,2.517-8.726,6.549-10.864c1.173-0.643,2.517-1.382,3.823-2.177l0.492-0.265
					c0.189-0.133,0.417-0.246,0.625-0.379l0.53-0.322c11.773-7.098,22.467-15.748,31.836-25.741l1.438-1.552
					c4.978-5.489,9.615-11.432,13.722-17.584l1.174-1.722c5.887-9.142,10.827-19.041,14.593-29.281
					c2.233-5.83,8.139-9.123,14.101-7.912l5.886,1.268c3.218,0.625,6.17,2.688,7.969,5.659l0.492,0.871
					C424.968,458.585,425.157,462.03,424.003,465.21z"/>
			</g>
		</g>
		<path id="XMLID_9_" style="fill:#FFFFFF;" d="M366.217,400.194c0,11.224-6.89,20.631-16.145,23.073
			c-0.984,0.151-1.969,0.322-2.934,0.511c-17.811,3.502-33.502,12.095-47.054,25.76c-18.246,18.379-27.35,40.505-27.35,66.36
			v140.669l-46.732,23.375V515.898c0-38.801,13.666-71.943,40.997-99.426c20.631-20.726,44.499-33.634,71.641-38.726
			c2.536-0.473,5.073-0.89,7.666-1.211C357.397,377.102,366.217,387.494,366.217,400.194z"/>
		<path id="XMLID_7_" style="fill:#FFFFFF;" d="M592.556,388.63c0,49.257-12.371,95.804-34.437,137.129
			c-20.303,38.126-48.8,71.812-83.4,99.101c-3.917,2.611-7.606,5.386-11.066,8.324c-0.033,0.065-0.098,0.13-0.163,0.163
			c-17.855,15.374-29.476,35.253-31.761,57.189c-0.294,2.644-0.424,5.288-0.424,7.997s0.131,5.353,0.424,7.997v49.485
			c-2.448,18.704-18.41,33.132-37.701,33.132c-8.356,0-16.027-2.709-22.295-7.279c-7.965-5.778-13.579-14.558-15.211-24.71v-47.135
			c0-8.65,0.62-17.17,1.861-25.493c0.588-4.276,1.371-8.52,2.285-12.73c7.867-35.58,26.505-67.406,52.488-92.181
			c9.303-6.463,18.149-13.514,26.407-21.054c47.429-43.316,76.839-103.443,76.839-169.934
			c0-131.906-115.716-238.842-258.427-238.842S-0.452,256.724-0.452,388.63c0,72.139,34.6,136.803,89.309,180.608
			c32.903,26.571,56.34,63.456,64.892,105.401c0.62,3.036,1.175,6.104,1.599,9.205c0.979,6.496,1.599,13.122,1.828,19.846v50.824
			c-0.849,11.36-6.659,21.315-15.276,27.713c-6.3,4.733-14.101,7.508-22.588,7.508c-18.606,0-34.078-13.448-37.342-31.141V696.64
			c0-24.71-11.784-47.331-31.173-64.501c-3.852-3.427-7.997-6.626-12.437-9.564c-33.327-26.864-60.845-59.768-80.56-96.881
			c-22.033-41.325-34.405-87.84-34.405-137.064c0-171.273,149.794-310.099,334.581-310.099S592.556,217.357,592.556,388.63z"/>
		<path id="XMLID_6_" style="fill:#FFFFFF;" d="M430.521,875.257c0,22.099-16.68,39.986-37.277,39.986H121.14
			c-20.564,0-37.245-17.888-37.245-39.986c0-22.066,16.68-39.986,37.245-39.986h272.104
			C413.841,835.271,430.521,853.191,430.521,875.257z"/>
		<path id="XMLID_5_" style="fill:#FC8403;" d="M365.139,979.581c0,21.25-17.104,38.485-38.191,38.485H183.323
			c-0.751,0-1.502-0.032-2.22-0.065c-0.522-0.033-1.045-0.065-1.567-0.131c-0.653-0.065-1.273-0.13-1.86-0.228
			c-0.62-0.098-1.208-0.196-1.828-0.327c-4.244-0.816-8.226-2.383-11.817-4.505c-0.49-0.294-1.012-0.62-1.501-0.947
			c-2.513-1.632-4.798-3.558-6.822-5.712c-0.359-0.359-0.718-0.718-1.012-1.11c-3.297-3.721-5.843-8.063-7.475-12.828
			c-0.359-1.045-0.686-2.154-0.947-3.232c-0.457-1.795-0.784-3.623-0.979-5.517c-0.065-0.62-0.098-1.273-0.13-1.893
			c-0.033-0.653-0.065-1.338-0.065-1.991c0-0.751,0.033-1.534,0.098-2.285c0.033-0.555,0.065-1.142,0.13-1.697
			c0.098-1.077,0.261-2.154,0.457-3.199c0.098-0.457,0.196-0.914,0.294-1.371c0.131-0.588,0.261-1.175,0.424-1.73
			c0.131-0.522,0.294-1.045,0.457-1.534c0.033-0.065,0.033-0.163,0.065-0.229c0.229-0.718,0.49-1.436,0.751-2.154
			c0.294-0.653,0.588-1.338,0.881-1.991c0.424-0.979,0.914-1.893,1.404-2.807c0.294-0.457,0.555-0.881,0.816-1.306
			c0.522-0.881,1.077-1.73,1.73-2.579c0.294-0.424,0.588-0.816,0.914-1.208c0.947-1.208,1.991-2.35,3.101-3.46
			c0.359-0.359,0.751-0.685,1.11-1.045c0.327-0.294,0.653-0.588,0.979-0.849c0.294-0.261,0.588-0.522,0.914-0.751
			c0.424-0.326,0.849-0.653,1.273-0.979c0.424-0.294,0.849-0.62,1.306-0.914c0.555-0.392,1.143-0.751,1.73-1.077
			c0.424-0.261,0.881-0.522,1.338-0.751c0.914-0.49,1.828-0.947,2.775-1.371c0.914-0.392,1.795-0.751,2.742-1.077
			c0.751-0.261,1.502-0.49,2.285-0.718c0.065-0.033,0.131-0.033,0.196-0.033c0.718-0.229,1.469-0.392,2.22-0.555
			c0.522-0.098,1.077-0.196,1.632-0.294H333.15C351.299,944.589,365.139,960.453,365.139,979.581z"/>
	</g>
	<g id="XMLID_38_">
		<path id="XMLID_42_" style="fill:#FC8403;" d="M3486.985,568.686v0.154c0,12.358-10.01,22.707-23.387,25.21l-10.164,0.371
			c-11.74-1.297-21.317-8.558-24.654-18.135c-0.34-2.904-0.772-5.777-1.236-8.62c-15.231-92.9-89.131-166.985-182.649-183.823
			c-3.151-0.556-6.333-1.051-9.546-1.514c-11.554-3.337-20.328-11.895-22.584-22.46l0.402-12.512
			c3.646-12.852,17.023-22.368,32.965-22.368c1.174,0,2.317,0.062,3.46,0.154c0.093,0,0.155,0,0.216,0.031
			c1.761,0.247,3.522,0.556,5.283,0.865c119.593,21.441,213.729,117.368,231.153,237.085
			C3486.522,564.948,3486.769,566.801,3486.985,568.686z"/>
		<path id="XMLID_39_" style="fill:#FC8403;" d="M3588.845,570.478c-1.082,13.254-13.81,23.727-29.381,23.727h-0.124l-3.46-0.185
			c-13.501-1.421-24.19-10.782-25.704-22.553c0-1.576-0.031-3.12-0.093-4.665c-4.943-151.569-125.679-274.653-284.323-294.24
			c-2.626-0.371-5.252-0.649-7.909-0.927h-0.031c-12.698-2.842-22.522-11.833-24.994-23.078l0.371-12.852
			c3.522-12.265,15.88-21.533,30.895-22.399c4.634,0.464,9.238,1.02,13.81,1.668c83.786,11.462,161.022,48.412,220.989,106.401
			c68.339,66.053,107.111,152.496,109.861,244.438C3588.814,567.358,3588.876,568.902,3588.845,570.478z"/>
	</g>
	<g id="XMLID_99_">
		<path id="XMLID_100_" style="fill:#FC8403;" d="M1166.848,481.625c42.571-42.571,93.916-63.862,154.021-63.862
			c60.106,0,111.439,21.291,154.021,63.862c42.571,42.582,63.862,93.916,63.862,154.021c0,11.388-1.142,23.458-3.415,36.2h-355.171
			c8.196,31.878,25.272,57.95,51.227,78.206c25.955,20.267,55.773,30.395,89.476,30.395c42.348,0,77.63-15.251,105.868-45.763h88.11
			c-18.217,35.977-44.738,64.78-79.572,86.402c-34.834,21.633-72.977,32.443-114.406,32.443c-60.105,0-111.45-21.28-154.021-63.862
			c-42.582-42.571-63.862-93.915-63.862-154.021C1102.985,575.541,1124.266,524.208,1166.848,481.625z M1180.167,599.446h281.404
			c-7.748-31.867-24.706-58.056-50.885-78.547c-26.189-20.491-56.125-30.736-89.817-30.736c-33.703,0-63.638,10.245-89.817,30.736
			C1204.862,541.391,1187.904,567.579,1180.167,599.446z"/>
	</g>
	<g id="XMLID_84_">
		<path id="XMLID_85_" style="fill:#FFFFFF;" d="M1895.777,296.869h76.498L1785.128,853.53h-42.348l-187.147-556.662h76.499
			l131.823,392.054L1895.777,296.869z"/>
		<path id="XMLID_87_" style="fill:#FFFFFF;" d="M2382.084,635.646v241.789l-72.399-36.883v-42.347
			c-41.899,36.883-90.394,55.324-145.483,55.324c-60.106,0-111.45-21.28-154.021-63.862
			c-42.582-42.571-63.862-93.915-63.862-154.021c0-60.105,21.28-111.439,63.862-154.021c42.571-42.571,93.915-63.862,154.021-63.862
			c60.105,0,111.438,21.291,154.021,63.862C2360.793,524.208,2382.084,575.541,2382.084,635.646z M2266.995,533.194
			c-28.462-28.228-62.73-42.347-102.794-42.347c-40.074,0-74.343,14.119-102.795,42.347
			c-28.463,28.239-42.688,62.389-42.688,102.453c0,40.074,14.226,74.343,42.688,102.795c28.452,28.463,62.721,42.688,102.795,42.688
			c40.063,0,74.332-14.226,102.794-42.688c28.452-28.452,42.689-62.721,42.689-102.795
			C2309.685,595.583,2295.447,561.433,2266.995,533.194z"/>
		<path id="XMLID_90_" style="fill:#FFFFFF;" d="M2697.63,720.341c0,36.436-12.978,67.737-38.932,93.916
			c-25.955,26.189-57.374,39.273-94.257,39.273c-36.436,0-67.619-12.86-93.574-38.591c-25.954-25.72-39.167-56.797-39.615-93.232
			h72.4c0.907,16.393,7.172,30.288,18.783,41.665c11.611,11.387,25.613,17.075,42.006,17.075c16.841,0,31.184-5.806,43.03-17.417
			c11.835-11.611,17.759-25.838,17.759-42.689c0-15.934-6.041-29.252-18.101-39.956c-12.07-10.693-26.638-19.573-43.713-26.638
			c-17.076-7.055-34.151-14.792-51.227-23.223c-17.076-8.421-31.654-20.939-43.714-37.566c-12.07-16.616-18.1-37.225-18.1-61.813
			c0-31.419,11.152-58.163,33.468-80.255c22.305-22.081,49.178-33.126,80.597-33.126s58.28,11.046,80.596,33.126
			c22.306,22.092,33.469,48.836,33.469,80.255h-73.083c0-11.376-3.992-21.056-11.953-29.028
			c-7.973-7.961-17.652-11.953-29.028-11.953c-11.388,0-21.067,3.991-29.028,11.953c-7.973,7.972-11.953,17.652-11.953,29.028
			c0,12.754,6.03,23.564,18.1,32.443c12.06,8.88,26.639,16.628,43.714,23.223c17.075,6.606,34.033,14.461,50.885,23.564
			c16.841,9.114,31.302,22.881,43.372,41.323C2691.59,670.14,2697.63,693.021,2697.63,720.341z"/>
		<path id="XMLID_93_" style="fill:#FFFFFF;" d="M2778.909,708.047V492.212h-53.958v-72.4h53.958V296.869l73.084,36.2v86.744h56.69
			v72.4h-56.69v215.834c0,20.042,7.054,37.225,21.173,51.568c14.109,14.343,31.185,21.515,51.227,21.515h23.223v72.4h-23.223
			c-40.073,0-74.342-14.226-102.794-42.688C2793.136,782.39,2778.909,748.121,2778.909,708.047z"/>
		<path id="XMLID_96_" style="fill:#FFFFFF;" d="M3398.402,635.646v241.789l-72.399-36.883v-42.347
			c-41.899,36.883-90.394,55.324-145.483,55.324c-60.106,0-111.45-21.28-154.021-63.862
			c-42.582-42.571-63.862-93.915-63.862-154.021c0-60.105,21.28-111.439,63.862-154.021c42.571-42.571,93.915-63.862,154.021-63.862
			c60.105,0,111.438,21.291,154.021,63.862C3377.111,524.208,3398.402,575.541,3398.402,635.646z M3283.313,533.194
			c-28.462-28.228-62.73-42.347-102.794-42.347c-40.074,0-74.343,14.119-102.795,42.347
			c-28.463,28.239-42.688,62.389-42.688,102.453c0,40.074,14.226,74.343,42.688,102.795c28.452,28.463,62.721,42.688,102.795,42.688
			c40.063,0,74.332-14.226,102.794-42.688c28.452-28.452,42.689-62.721,42.689-102.795
			C3326.003,595.583,3311.766,561.433,3283.313,533.194z"/>
	</g>
	<g id="XMLID_21_">
		<g id="XMLID_129_">
			<path id="XMLID_130_" style="fill:#FC8403;" d="M683.254,298.441h217.883c46.445,0,86.285,16.627,119.529,49.86
				c33.233,33.244,49.86,73.318,49.86,120.212c0,37.342-11.046,70.927-33.126,100.745c-22.092,29.828-50.661,50.202-85.719,61.13
				l101.087,224.714h-79.913l-96.989-216.518H756.337v216.518l-73.083,36.883L683.254,298.441L683.254,298.441z M756.337,371.524
				v193.978h144.8c26.862,0,49.743-9.563,68.644-28.687c18.89-19.125,28.345-41.888,28.345-68.302
				c0-26.403-9.456-49.178-28.345-68.302c-18.9-19.125-41.782-28.687-68.644-28.687L756.337,371.524L756.337,371.524z"/>
		</g>
	</g>
</g>
</svg>
