<?xml version="1.0" encoding="utf-8"?>
<!-- Generator: Adobe Illustrator 19.0.0, SVG Export Plug-In . SVG Version: 6.00 Build 0)  -->
<svg version="1.1" xmlns="http://www.w3.org/2000/svg" xmlns:xlink="http://www.w3.org/1999/xlink" x="0px" y="0px"
	 viewBox="-199 0 3920 1080" style="enable-background:new -199 0 3920 1080;" xml:space="preserve">
<style type="text/css">
	.st0{display:none;}
	.st1{display:inline;fill:#017BFF;}
	.st2{display:inline;fill:#037BFB;}
	.st3{fill:#FFFFFF;}
	.st4{fill:#FC8403;}
</style>
<g id="Layer_2_1_" class="st0">
	<rect x="-394" y="-128" class="st1" width="4328" height="1452"/>
</g>
<g id="Layer_1">
	
		<image style="overflow:visible;opacity:0.75;" width="3760" height="971" xlink:href="C85C824E.png"  transform="matrix(1 0 0 1 -107 86)">
	</image>
	<g>
		<g>
			<g id="Layer_2_10_" class="st0">
				<rect id="XMLID_404_" x="-197" y="16.6" class="st2" width="3920" height="1080"/>
			</g>
			<g id="XMLID_384_">
				<g id="XMLID_394_">
					<g id="XMLID_401_">
						<g id="XMLID_402_">
							<path id="XMLID_403_" class="st3" d="M359.9,298.8l0,0.6c-0.2,3.6-2,6.9-4.8,9l-4.4,3.6c-2.1,1.7-4.9,2.7-7.7,2.7
								c-3.1,0-6-1.1-8.3-3.2c-6.2-5.7-12.7-10.9-19.6-15.4c-5.2-3.6-7.1-10.1-4.5-15.6l2.8-6c1.5-2.8,4-4.9,7-5.9l1.3-0.4
								c3-0.7,6.1-0.2,8.7,1.3l0.6,0.4c8.9,5.8,17.3,12.4,25.1,19.6l0.1,0.1C358.6,292.4,359.9,295.5,359.9,298.8z"/>
						</g>
					</g>
					<g id="XMLID_398_">
						<g id="XMLID_399_">
							<path id="XMLID_400_" class="st3" d="M400.4,366.6l-0.2,0.3c-1.7,3.2-4.8,5.5-8.3,6.2l-5.5,1.3c-0.9,0.2-1.9,0.4-2.9,0.4
								c-5,0-9.6-3.2-11.5-8c-3-7.6-6.6-15.1-10.9-22.3c-3.2-5.4-2-12.1,2.7-15.9l4.6-3.7c2.1-1.8,4.9-2.8,7.8-2.8l1.4,0.1l1,0.2
								c3.4,0.7,6.3,2.6,8.1,5.6c5.5,9.1,10.2,18.8,14,28.8l0.2,0.5C402.2,360.2,401.9,363.6,400.4,366.6z"/>
						</g>
					</g>
					<g id="XMLID_395_">
						<g id="XMLID_396_">
							<path id="XMLID_397_" class="st3" d="M412.6,420.4c0,4-0.2,8.3-0.5,12.7l0,0.6c-0.4,3.2-1.9,6-4.4,8l-0.4,0.3
								c-2.2,1.7-4.8,2.5-7.5,2.5c-0.8,0-1.5-0.1-2.2-0.2l-0.5-0.1l-5.8-1.2c-5.8-1.1-9.9-6.4-9.7-12.5l0-0.5c0.2-3,0.3-6.4,0.3-9.7
								c0-4.1-0.2-8.3-0.5-12.4c-0.5-6.1,3.4-11.6,9.3-13.1l5.8-1.3c0.9-0.2,1.9-0.4,2.9-0.4c2.5,0,4.9,0.7,6.9,2.1
								c3.2,2.2,5.1,5.6,5.4,9.4C412.4,409.7,412.6,415.1,412.6,420.4z"/>
						</g>
					</g>
				</g>
				<g id="XMLID_389_">
					<g id="XMLID_392_">
						<path id="XMLID_393_" class="st4" d="M294.2,265.8l-0.2,0.5l-2.6,5.5c-2.6,5.5-9,8.3-14.9,6.5c-9.7-2.9-19.6-4.8-29.7-5.7
							l-2.1-0.2c-3.6-0.3-7.4-0.4-11-0.4c-3.5,0-7.2,0.1-11.4,0.4l-1.6,0.2c-13.7,1.2-27.1,4.2-39.8,9.1l-0.3,0.1
							c-0.5,0.2-0.9,0.3-1.3,0.5l-0.2,0.1c-7.2,2.9-14,6.2-20.3,9.9l-0.2,0.1c-0.3,0.2-0.6,0.3-0.8,0.5l-0.8,0.5
							c-11.6,7-22.3,15.7-31.6,25.6c-0.5,0.5-0.9,0.9-1.3,1.4c-5.1,5.6-9.7,11.5-13.9,17.7l-1.2,1.8c-7.4,11.5-13.2,23.9-17.2,36.9
							l-0.6,1.9c-2.1,7.1-3.7,14.5-4.7,22l-0.2,1.7c-0.7,6.1-1.1,12.1-1.1,17.9c0,6.8,0.5,13.6,1.4,20.3c0.1,0.7,0.2,1.3,0.3,2
							c1.1,7.4,2.8,14.8,5.1,22c0.2,0.5,0.3,1,0.5,1.6c4.3,13.2,10.3,25.6,17.9,36.8c0.4,0.7,0.7,1.1,0.9,1.4l0.1,0.2
							c4.2,6.2,9,12,14.2,17.5c0.5,0.5,0.9,0.9,1.2,1.3c9.6,10,20.5,18.5,32.3,25.3c0.5,0.3,1,0.6,1.4,0.8l1.2,0.7
							c3.9,2.2,6.3,6.2,6.3,10.7v6.7c0,4.3-2.2,8.2-5.8,10.4c-2.1,1.2-4.3,1.9-6.5,1.9c-2,0-4-0.5-5.8-1.5c-0.7-0.4-1.5-0.8-2.4-1.3
							c-0.5-0.2-1.1-0.6-1.9-1c-15.6-8.8-29.8-19.9-42.2-33c-0.3-0.3-0.8-0.8-1.2-1.3l-0.2-0.2c-5.2-5.6-10.1-11.6-14.6-17.9
							l-0.3-0.4c-0.2-0.2-0.4-0.6-0.7-0.9l-0.3-0.4c-10.2-14.7-18.1-30.9-23.5-48.1l-0.1-0.5c-0.2-0.5-0.3-1-0.5-1.6l0-0.1
							c-2.2-7.2-3.9-14.8-5.1-22.4l-0.3-1.8c-1.3-8.9-2-18-2-27c0-7.9,0.5-15.9,1.6-23.8c0-0.2,0.1-0.5,0.1-0.9l0.1-0.7
							c1.2-8.1,2.8-15.8,4.9-23.1l0.1-0.3c0.1-0.5,0.2-0.9,0.4-1.5l0.1-0.3c5-17.1,12.6-33.4,22.6-48.5l1.1-1.6
							c4.2-6.2,9-12.4,14.3-18.4l0.1-0.1c0.4-0.5,0.9-1,1.4-1.5c12-13.2,26.1-24.5,41.7-33.8l1.5-0.8c6.7-3.8,13.7-7.3,20.8-10.2
							l0.3-0.1c0.4-0.2,0.8-0.3,1.2-0.5l0.4-0.2c16.9-6.7,34.5-10.8,52.4-12.1l2.1-0.1c7.8-0.5,15.4-0.5,23.3,0l1.7,0.1
							c13.5,1,26.6,3.5,39.2,7.3l0.1,0c3.6,1.1,6.4,3.8,7.8,7.2C295.4,259.3,295.5,262.8,294.2,265.8z"/>
					</g>
					<g id="XMLID_390_">
						<path id="XMLID_391_" class="st4" d="M402,481.2c-4.8,13.4-11.3,26.3-19.3,38.3l-1,1.5c-4.5,6.5-9.3,12.7-14.5,18.5l-1.3,1.4
							c-12.1,13.3-26.2,24.7-41.7,33.8l-1.6,0.9c-2.2,1.2-4.2,2.3-6.2,3.4c-1.8,1-3.8,1.5-5.8,1.5c-2.2,0-4.4-0.6-6.4-1.8
							c-3.8-2.3-5.9-6.2-5.9-10.5v-6.7c0-4.6,2.5-8.7,6.5-10.9c1.2-0.6,2.5-1.4,3.8-2.2l0.5-0.3c0.2-0.1,0.4-0.2,0.6-0.4l0.5-0.3
							c11.8-7.1,22.5-15.7,31.8-25.7l1.4-1.6c5-5.5,9.6-11.4,13.7-17.6l1.2-1.7c5.9-9.1,10.8-19,14.6-29.3c2.2-5.8,8.1-9.1,14.1-7.9
							l5.9,1.3c3.2,0.6,6.2,2.7,8,5.7l0.5,0.9C403,474.6,403.2,478,402,481.2z"/>
					</g>
				</g>
				<path id="XMLID_388_" class="st3" d="M344.2,416.2c0,11.2-6.9,20.6-16.1,23.1c-1,0.2-2,0.3-2.9,0.5
					c-17.8,3.5-33.5,12.1-47.1,25.8c-18.2,18.4-27.4,40.5-27.4,66.4v140.7L204,695.9v-164c0-38.8,13.7-71.9,41-99.4
					c20.6-20.7,44.5-33.6,71.6-38.7c2.5-0.5,5.1-0.9,7.7-1.2C335.4,393.1,344.2,403.5,344.2,416.2z"/>
				<path id="XMLID_387_" class="st3" d="M570.6,404.6c0,49.3-12.4,95.8-34.4,137.1c-20.3,38.1-48.8,71.8-83.4,99.1
					c-3.9,2.6-7.6,5.4-11.1,8.3c0,0.1-0.1,0.1-0.2,0.2c-17.9,15.4-29.5,35.3-31.8,57.2c-0.3,2.6-0.4,5.3-0.4,8s0.1,5.4,0.4,8V772
					c-2.4,18.7-18.4,33.1-37.7,33.1c-8.4,0-16-2.7-22.3-7.3c-8-5.8-13.6-14.6-15.2-24.7V726c0-8.7,0.6-17.2,1.9-25.5
					c0.6-4.3,1.4-8.5,2.3-12.7c7.9-35.6,26.5-67.4,52.5-92.2c9.3-6.5,18.1-13.5,26.4-21.1c47.4-43.3,76.8-103.4,76.8-169.9
					c0-131.9-115.7-238.8-258.4-238.8S-22.5,272.7-22.5,404.6c0,72.1,34.6,136.8,89.3,180.6c32.9,26.6,56.3,63.5,64.9,105.4
					c0.6,3,1.2,6.1,1.6,9.2c1,6.5,1.6,13.1,1.8,19.8v50.8c-0.8,11.4-6.7,21.3-15.3,27.7c-6.3,4.7-14.1,7.5-22.6,7.5
					c-18.6,0-34.1-13.4-37.3-31.1v-62c0-24.7-11.8-47.3-31.2-64.5c-3.9-3.4-8-6.6-12.4-9.6c-33.3-26.9-60.8-59.8-80.6-96.9
					c-22-41.3-34.4-87.8-34.4-137.1C-98.6,233.4,51.2,94.5,236,94.5S570.6,233.4,570.6,404.6z"/>
				<path id="XMLID_386_" class="st3" d="M408.5,891.3c0,22.1-16.7,40-37.3,40H99.1c-20.6,0-37.2-17.9-37.2-40
					c0-22.1,16.7-40,37.2-40h272.1C391.8,851.3,408.5,869.2,408.5,891.3z"/>
				<path id="XMLID_385_" class="st4" d="M343.1,995.6c0,21.3-17.1,38.5-38.2,38.5H161.3c-0.8,0-1.5,0-2.2-0.1c-0.5,0-1-0.1-1.6-0.1
					c-0.7-0.1-1.3-0.1-1.9-0.2c-0.6-0.1-1.2-0.2-1.8-0.3c-4.2-0.8-8.2-2.4-11.8-4.5c-0.5-0.3-1-0.6-1.5-0.9
					c-2.5-1.6-4.8-3.6-6.8-5.7c-0.4-0.4-0.7-0.7-1-1.1c-3.3-3.7-5.8-8.1-7.5-12.8c-0.4-1-0.7-2.2-0.9-3.2c-0.5-1.8-0.8-3.6-1-5.5
					c-0.1-0.6-0.1-1.3-0.1-1.9c0-0.7-0.1-1.3-0.1-2c0-0.8,0-1.5,0.1-2.3c0-0.6,0.1-1.1,0.1-1.7c0.1-1.1,0.3-2.2,0.5-3.2
					c0.1-0.5,0.2-0.9,0.3-1.4c0.1-0.6,0.3-1.2,0.4-1.7c0.1-0.5,0.3-1,0.5-1.5c0-0.1,0-0.2,0.1-0.2c0.2-0.7,0.5-1.4,0.8-2.2
					c0.3-0.7,0.6-1.3,0.9-2c0.4-1,0.9-1.9,1.4-2.8c0.3-0.5,0.6-0.9,0.8-1.3c0.5-0.9,1.1-1.7,1.7-2.6c0.3-0.4,0.6-0.8,0.9-1.2
					c0.9-1.2,2-2.3,3.1-3.5c0.4-0.4,0.8-0.7,1.1-1c0.3-0.3,0.7-0.6,1-0.8c0.3-0.3,0.6-0.5,0.9-0.8c0.4-0.3,0.8-0.7,1.3-1
					c0.4-0.3,0.8-0.6,1.3-0.9c0.6-0.4,1.1-0.8,1.7-1.1c0.4-0.3,0.9-0.5,1.3-0.8c0.9-0.5,1.8-0.9,2.8-1.4c0.9-0.4,1.8-0.8,2.7-1.1
					c0.8-0.3,1.5-0.5,2.3-0.7c0.1,0,0.1,0,0.2,0c0.7-0.2,1.5-0.4,2.2-0.6c0.5-0.1,1.1-0.2,1.6-0.3h156
					C329.3,960.6,343.1,976.5,343.1,995.6z"/>
			</g>
			<g id="XMLID_381_">
				<path id="XMLID_383_" class="st4" d="M3529,584.7v0.2c0,12.4-10,22.7-23.4,25.2l-10.2,0.4c-11.7-1.3-21.3-8.6-24.7-18.1
					c-0.3-2.9-0.8-5.8-1.2-8.6c-15.2-92.9-89.1-167-182.6-183.8c-3.2-0.6-6.3-1.1-9.5-1.5c-11.6-3.3-20.3-11.9-22.6-22.5l0.4-12.5
					c3.6-12.9,17-22.4,33-22.4c1.2,0,2.3,0.1,3.5,0.2c0.1,0,0.2,0,0.2,0c1.8,0.2,3.5,0.6,5.3,0.9
					c119.6,21.4,213.7,117.4,231.2,237.1C3528.5,580.9,3528.8,582.8,3529,584.7z"/>
				<path id="XMLID_382_" class="st4" d="M3630.8,586.5c-1.1,13.3-13.8,23.7-29.4,23.7h-0.1l-3.5-0.2c-13.5-1.4-24.2-10.8-25.7-22.6
					c0-1.6,0-3.1-0.1-4.7c-4.9-151.6-125.7-274.7-284.3-294.2c-2.6-0.4-5.3-0.6-7.9-0.9h0c-12.7-2.8-22.5-11.8-25-23.1l0.4-12.9
					c3.5-12.3,15.9-21.5,30.9-22.4c4.6,0.5,9.2,1,13.8,1.7c83.8,11.5,161,48.4,221,106.4c68.3,66.1,107.1,152.5,109.9,244.4
					C3630.8,583.4,3630.9,584.9,3630.8,586.5z"/>
			</g>
			<g id="XMLID_379_">
				<path id="XMLID_380_" class="st4" d="M1208.8,497.6c42.6-42.6,93.9-63.9,154-63.9c60.1,0,111.4,21.3,154,63.9
					c42.6,42.6,63.9,93.9,63.9,154c0,11.4-1.1,23.5-3.4,36.2h-355.2c8.2,31.9,25.3,58,51.2,78.2c26,20.3,55.8,30.4,89.5,30.4
					c42.3,0,77.6-15.3,105.9-45.8h88.1c-18.2,36-44.7,64.8-79.6,86.4c-34.8,21.6-73,32.4-114.4,32.4c-60.1,0-111.4-21.3-154-63.9
					c-42.6-42.6-63.9-93.9-63.9-154C1145,591.5,1166.3,540.2,1208.8,497.6z M1222.2,615.4h281.4c-7.7-31.9-24.7-58.1-50.9-78.5
					c-26.2-20.5-56.1-30.7-89.8-30.7c-33.7,0-63.6,10.2-89.8,30.7C1246.9,557.4,1229.9,583.6,1222.2,615.4z"/>
			</g>
			<g id="XMLID_373_">
				<path id="XMLID_378_" class="st3" d="M1937.8,312.9h76.5l-187.1,556.7h-42.3l-187.1-556.7h76.5L1806,704.9L1937.8,312.9z"/>
				<path id="XMLID_377_" class="st3" d="M2424.1,651.6v241.8l-72.4-36.9v-42.3c-41.9,36.9-90.4,55.3-145.5,55.3
					c-60.1,0-111.4-21.3-154-63.9c-42.6-42.6-63.9-93.9-63.9-154c0-60.1,21.3-111.4,63.9-154c42.6-42.6,93.9-63.9,154-63.9
					c60.1,0,111.4,21.3,154,63.9C2402.8,540.2,2424.1,591.5,2424.1,651.6z M2309,549.2c-28.5-28.2-62.7-42.3-102.8-42.3
					c-40.1,0-74.3,14.1-102.8,42.3c-28.5,28.2-42.7,62.4-42.7,102.5c0,40.1,14.2,74.3,42.7,102.8c28.5,28.5,62.7,42.7,102.8,42.7
					c40.1,0,74.3-14.2,102.8-42.7c28.5-28.5,42.7-62.7,42.7-102.8C2351.7,611.6,2337.4,577.4,2309,549.2z"/>
				<path id="XMLID_376_" class="st3" d="M2739.6,736.3c0,36.4-13,67.7-38.9,93.9c-26,26.2-57.4,39.3-94.3,39.3
					c-36.4,0-67.6-12.9-93.6-38.6c-26-25.7-39.2-56.8-39.6-93.2h72.4c0.9,16.4,7.2,30.3,18.8,41.7c11.6,11.4,25.6,17.1,42,17.1
					c16.8,0,31.2-5.8,43-17.4c11.8-11.6,17.8-25.8,17.8-42.7c0-15.9-6-29.3-18.1-40c-12.1-10.7-26.6-19.6-43.7-26.6
					c-17.1-7.1-34.2-14.8-51.2-23.2c-17.1-8.4-31.7-20.9-43.7-37.6c-12.1-16.6-18.1-37.2-18.1-61.8c0-31.4,11.2-58.2,33.5-80.3
					c22.3-22.1,49.2-33.1,80.6-33.1s58.3,11,80.6,33.1c22.3,22.1,33.5,48.8,33.5,80.3h-73.1c0-11.4-4-21.1-12-29c-8-8-17.7-12-29-12
					c-11.4,0-21.1,4-29,12c-8,8-12,17.7-12,29c0,12.8,6,23.6,18.1,32.4c12.1,8.9,26.6,16.6,43.7,23.2c17.1,6.6,34,14.5,50.9,23.6
					c16.8,9.1,31.3,22.9,43.4,41.3C2733.6,686.1,2739.6,709,2739.6,736.3z"/>
				<path id="XMLID_375_" class="st3" d="M2820.9,724V508.2h-54v-72.4h54V312.9l73.1,36.2v86.7h56.7v72.4H2894V724
					c0,20,7.1,37.2,21.2,51.6c14.1,14.3,31.2,21.5,51.2,21.5h23.2v72.4h-23.2c-40.1,0-74.3-14.2-102.8-42.7
					C2835.1,798.4,2820.9,764.1,2820.9,724z"/>
				<path id="XMLID_374_" class="st3" d="M3440.4,651.6v241.8l-72.4-36.9v-42.3c-41.9,36.9-90.4,55.3-145.5,55.3
					c-60.1,0-111.4-21.3-154-63.9c-42.6-42.6-63.9-93.9-63.9-154c0-60.1,21.3-111.4,63.9-154c42.6-42.6,93.9-63.9,154-63.9
					c60.1,0,111.4,21.3,154,63.9C3419.1,540.2,3440.4,591.5,3440.4,651.6z M3325.3,549.2c-28.5-28.2-62.7-42.3-102.8-42.3
					c-40.1,0-74.3,14.1-102.8,42.3c-28.5,28.2-42.7,62.4-42.7,102.5c0,40.1,14.2,74.3,42.7,102.8c28.5,28.5,62.7,42.7,102.8,42.7
					c40.1,0,74.3-14.2,102.8-42.7c28.5-28.5,42.7-62.7,42.7-102.8C3368,611.6,3353.8,577.4,3325.3,549.2z"/>
			</g>
			<g id="XMLID_370_">
				<g id="XMLID_371_">
					<path id="XMLID_372_" class="st4" d="M725.3,314.4h217.9c46.4,0,86.3,16.6,119.5,49.9c33.2,33.2,49.9,73.3,49.9,120.2
						c0,37.3-11,70.9-33.1,100.7c-22.1,29.8-50.7,50.2-85.7,61.1l101.1,224.7h-79.9l-97-216.5H798.3v216.5L725.3,908L725.3,314.4
						L725.3,314.4z M798.3,387.5v194h144.8c26.9,0,49.7-9.6,68.6-28.7c18.9-19.1,28.3-41.9,28.3-68.3c0-26.4-9.5-49.2-28.3-68.3
						c-18.9-19.1-41.8-28.7-68.6-28.7L798.3,387.5L798.3,387.5z"/>
				</g>
			</g>
		</g>
	</g>
</g>
</svg>
