<?xml version="1.0" encoding="iso-8859-1"?>
<!-- Generator: Adobe Illustrator 19.0.0, SVG Export Plug-In . SVG Version: 6.00 Build 0)  -->
<svg version="1.1" xmlns="http://www.w3.org/2000/svg" xmlns:xlink="http://www.w3.org/1999/xlink" x="0px" y="0px"
	 viewBox="0 0 3200 1080" style="enable-background:new 0 0 3200 1080;" xml:space="preserve">
<g id="Layer_2" style="display:none;">
	<rect id="XMLID_1_" x="-360" y="0.622" style="display:inline;fill:#037BFB;" width="3920" height="1080"/>
</g>
<g id="Layer_1">
	<g id="XMLID_38_">
		<path id="XMLID_42_" style="fill:#FC8403;" d="M2961.879,575.773v0.154c0,12.358-10.01,22.707-23.387,25.21l-10.164,0.371
			c-11.74-1.298-21.317-8.558-24.654-18.135c-0.34-2.904-0.772-5.777-1.236-8.62c-15.231-92.9-89.131-166.985-182.648-183.823
			c-3.151-0.556-6.333-1.051-9.547-1.514c-11.554-3.337-20.328-11.895-22.584-22.46l0.402-12.512
			c3.646-12.852,17.023-22.368,32.965-22.368c1.174,0,2.317,0.062,3.46,0.154c0.093,0,0.154,0,0.216,0.031
			c1.761,0.247,3.522,0.556,5.283,0.865c119.593,21.441,213.729,117.368,231.153,237.085
			C2961.416,572.034,2961.663,573.888,2961.879,575.773z"/>
		<path id="XMLID_39_" style="fill:#FC8403;" d="M3063.739,577.564c-1.082,13.254-13.81,23.727-29.381,23.727h-0.124l-3.46-0.185
			c-13.5-1.421-24.19-10.782-25.704-22.553c0-1.576-0.031-3.12-0.093-4.665c-4.943-151.569-125.679-274.653-284.323-294.24
			c-2.626-0.371-5.252-0.649-7.909-0.927h-0.031c-12.698-2.842-22.522-11.833-24.994-23.078l0.371-12.852
			c3.522-12.265,15.88-21.533,30.895-22.399c4.634,0.463,9.238,1.02,13.81,1.668c83.786,11.462,161.022,48.412,220.989,106.401
			c68.339,66.053,107.111,152.496,109.861,244.438C3063.708,574.444,3063.77,575.989,3063.739,577.564z"/>
	</g>
	<g id="XMLID_47_">
		<path id="XMLID_48_" style="fill:#FC8403;" d="M641.741,488.712c42.571-42.571,93.916-63.862,154.021-63.862
			c60.106,0,111.439,21.291,154.021,63.862c42.571,42.582,63.862,93.915,63.862,154.021c0,11.388-1.142,23.458-3.415,36.2H655.06
			c8.196,31.878,25.272,57.95,51.227,78.206c25.955,20.267,55.773,30.395,89.476,30.395c42.348,0,77.63-15.251,105.868-45.763h88.11
			c-18.217,35.977-44.738,64.78-79.572,86.402c-34.834,21.633-72.977,32.443-114.406,32.443c-60.105,0-111.45-21.28-154.021-63.862
			c-42.582-42.571-63.862-93.915-63.862-154.021C577.879,582.627,599.159,531.294,641.741,488.712z M655.06,606.533h281.404
			c-7.748-31.867-24.706-58.056-50.885-78.547c-26.189-20.491-56.125-30.736-89.817-30.736c-33.703,0-63.638,10.245-89.817,30.736
			C679.756,548.477,662.798,574.665,655.06,606.533z"/>
	</g>
	<g id="XMLID_16_">
		<path id="XMLID_17_" style="fill:#FFFFFF;" d="M1370.671,303.955h76.498l-187.147,556.662h-42.348l-187.147-556.662h76.499
			l131.823,392.054L1370.671,303.955z"/>
		<path id="XMLID_21_" style="fill:#FFFFFF;" d="M1856.979,642.733v241.789l-72.399-36.883v-42.347
			c-41.899,36.883-90.394,55.324-145.483,55.324c-60.106,0-111.45-21.28-154.021-63.862
			c-42.582-42.571-63.862-93.915-63.862-154.021c0-60.105,21.28-111.439,63.862-154.021c42.571-42.571,93.915-63.862,154.021-63.862
			c60.105,0,111.438,21.291,154.021,63.862C1835.688,531.294,1856.979,582.627,1856.979,642.733z M1741.89,540.28
			c-28.462-28.228-62.73-42.347-102.794-42.347c-40.074,0-74.343,14.119-102.795,42.347
			c-28.463,28.239-42.688,62.389-42.688,102.453c0,40.074,14.226,74.343,42.688,102.795c28.452,28.463,62.721,42.688,102.795,42.688
			c40.063,0,74.332-14.226,102.794-42.688c28.452-28.452,42.689-62.721,42.689-102.795
			C1784.579,602.669,1770.342,568.519,1741.89,540.28z"/>
		<path id="XMLID_25_" style="fill:#FFFFFF;" d="M2172.525,727.427c0,36.436-12.978,67.737-38.932,93.916
			c-25.955,26.189-57.374,39.273-94.257,39.273c-36.436,0-67.619-12.86-93.574-38.591c-25.954-25.72-39.167-56.797-39.615-93.232
			h72.4c0.907,16.393,7.172,30.288,18.783,41.665c11.611,11.387,25.613,17.075,42.006,17.075c16.841,0,31.184-5.806,43.03-17.417
			c11.835-11.611,17.759-25.838,17.759-42.689c0-15.934-6.041-29.252-18.101-39.956c-12.07-10.693-26.638-19.573-43.713-26.638
			c-17.076-7.055-34.151-14.792-51.227-23.223c-17.076-8.421-31.654-20.939-43.714-37.566c-12.07-16.616-18.1-37.225-18.1-61.813
			c0-31.419,11.152-58.163,33.468-80.255c22.305-22.081,49.178-33.126,80.597-33.126s58.28,11.046,80.596,33.126
			c22.306,22.092,33.469,48.836,33.469,80.255h-73.083c0-11.376-3.992-21.056-11.953-29.028
			c-7.973-7.961-17.652-11.953-29.028-11.953c-11.388,0-21.067,3.991-29.028,11.953c-7.973,7.972-11.953,17.652-11.953,29.028
			c0,12.754,6.03,23.564,18.1,32.443c12.06,8.88,26.639,16.628,43.714,23.223c17.075,6.606,34.033,14.461,50.885,23.564
			c16.841,9.114,31.302,22.881,43.372,41.323C2166.485,677.226,2172.525,700.107,2172.525,727.427z"/>
		<path id="XMLID_40_" style="fill:#FFFFFF;" d="M2253.803,715.133V499.299h-53.958v-72.4h53.958V303.955l73.084,36.2v86.744h56.69
			v72.4h-56.69v215.834c0,20.042,7.054,37.225,21.173,51.568c14.109,14.343,31.185,21.515,51.227,21.515h23.223v72.4h-23.223
			c-40.073,0-74.342-14.226-102.794-42.688C2268.03,789.476,2253.803,755.207,2253.803,715.133z"/>
		<path id="XMLID_44_" style="fill:#FFFFFF;" d="M2873.296,642.733v241.789l-72.399-36.883v-42.347
			c-41.899,36.883-90.394,55.324-145.483,55.324c-60.106,0-111.45-21.28-154.021-63.862
			c-42.582-42.571-63.862-93.915-63.862-154.021c0-60.105,21.28-111.439,63.862-154.021c42.571-42.571,93.915-63.862,154.021-63.862
			c60.105,0,111.438,21.291,154.021,63.862C2852.005,531.294,2873.296,582.627,2873.296,642.733z M2758.207,540.28
			c-28.462-28.228-62.73-42.347-102.794-42.347c-40.074,0-74.343,14.119-102.795,42.347
			c-28.463,28.239-42.688,62.389-42.688,102.453c0,40.074,14.226,74.343,42.688,102.795c28.452,28.463,62.721,42.688,102.795,42.688
			c40.063,0,74.332-14.226,102.794-42.688c28.452-28.452,42.689-62.721,42.689-102.795
			C2800.897,602.669,2786.659,568.519,2758.207,540.28z"/>
	</g>
	<g id="XMLID_2_">
		<g id="XMLID_77_">
			<path id="XMLID_78_" style="fill:#FC8403;" d="M158.148,305.528h217.883c46.445,0,86.285,16.627,119.529,49.86
				c33.233,33.244,49.86,73.318,49.86,120.212c0,37.342-11.046,70.927-33.126,100.745c-22.092,29.828-50.661,50.202-85.719,61.13
				l101.087,224.714h-79.913L350.76,645.671H231.231v216.518l-73.083,36.883V305.528z M231.231,378.611v193.978h144.8
				c26.862,0,49.743-9.563,68.644-28.687c18.89-19.125,28.345-41.888,28.345-68.302c0-26.403-9.456-49.178-28.345-68.302
				c-18.9-19.125-41.782-28.687-68.644-28.687H231.231z"/>
		</g>
	</g>
</g>
</svg>
